# xmcd
# Copyright (C) 1995-1998 Ti Kan
#
# Track frame offsets:
#       150
#       14129
#       30986
#       44103
#       55806
#
# Disc length: 919 seconds
#
# Revision: 0
# Processed by: cddbd v1.5.2PL0 Copyright (c) Steve Scherf et al.
# Submitted via: CD-Transfer v1.0
#
DISCID=3f039505
DTITLE=The Jai-Alai Savant - Scarlett Johansson Why Don't You Love Me
DYEAR=06
DGENRE=
TTITLE0=Scarlett Johansson Why Don't You Love Me
TTITLE1=Thunderstatement
TTITLE2=Diary Of The Mass Trappist
TTITLE3=Akebono Dub
TTITLE4=Mass Trappist Dub
EXTD=
EXTT0=
EXTT1=
EXTT2=
EXTT3=
EXTT4=
PLAYORDER=
